G04*
G04 #@! TF.GenerationSoftware,Altium Limited,Altium Designer,24.4.1 (13)*
G04*
G04 Layer_Color=65535*
%FSLAX44Y44*%
%MOMM*%
G71*
G04*
G04 #@! TF.SameCoordinates,A297E379-7285-4428-8928-0B9039EEF6AF*
G04*
G04*
G04 #@! TF.FilePolarity,Positive*
G04*
G01*
G75*
%ADD10C,0.2000*%
%ADD11C,0.2540*%
D10*
X95250Y810260D02*
Y838200D01*
X82550D02*
X95250D01*
X82550Y810260D02*
Y838200D01*
Y810260D02*
X95250D01*
X166878Y816610D02*
X201422D01*
Y796290D02*
Y816610D01*
X166878Y796290D02*
X201422D01*
X166878D02*
Y816610D01*
X251714Y795274D02*
Y843026D01*
X273558D01*
Y795274D02*
Y843026D01*
X251714Y795274D02*
X273558D01*
X166370Y824992D02*
X176530D01*
X166370D02*
Y846328D01*
X176530D01*
Y824992D02*
Y846328D01*
D11*
X281940Y848106D02*
X348488D01*
X281940Y790194D02*
X348488D01*
Y848106D01*
X281940Y790194D02*
Y848106D01*
X10922Y795274D02*
X77470D01*
X10922Y853186D02*
X77470D01*
X10922Y795274D02*
Y853186D01*
X77470Y795274D02*
Y853186D01*
X190754Y822706D02*
Y856234D01*
X245110Y822706D02*
Y856234D01*
X190754D02*
X245110D01*
X190754Y822706D02*
X245110D01*
X154610Y803250D02*
Y840334D01*
X108890Y803250D02*
X154610D01*
X108890D02*
Y840334D01*
X154610D01*
X88900Y801369D02*
X87630Y802639D01*
X85091D01*
X83822Y801369D01*
Y796291D01*
X85091Y795021D01*
X87630D01*
X88900Y796291D01*
X91439Y795021D02*
X93978D01*
X92709D01*
Y802639D01*
X91439Y801369D01*
X341630Y862329D02*
X339091D01*
X340360D01*
Y855981D01*
X339091Y854711D01*
X337821D01*
X336552Y855981D01*
X344169Y854711D02*
X346708D01*
X345439D01*
Y862329D01*
X344169Y861059D01*
X17780Y866139D02*
X15241D01*
X16511D01*
Y859791D01*
X15241Y858521D01*
X13972D01*
X12702Y859791D01*
X25398Y858521D02*
X20320D01*
X25398Y863600D01*
Y864869D01*
X24128Y866139D01*
X21589D01*
X20320Y864869D01*
X180342Y781051D02*
Y788669D01*
X184150D01*
X185420Y787399D01*
Y784860D01*
X184150Y783590D01*
X180342D01*
X182881D02*
X185420Y781051D01*
X187959D02*
X190498D01*
X189229D01*
Y788669D01*
X187959Y787399D01*
X260350Y783589D02*
X259081Y784859D01*
X256542D01*
X255272Y783589D01*
Y778511D01*
X256542Y777241D01*
X259081D01*
X260350Y778511D01*
X262890Y783589D02*
X264159Y784859D01*
X266698D01*
X267968Y783589D01*
Y782320D01*
X266698Y781050D01*
X265429D01*
X266698D01*
X267968Y779780D01*
Y778511D01*
X266698Y777241D01*
X264159D01*
X262890Y778511D01*
X214632Y869949D02*
Y862331D01*
X219710D01*
X222249D02*
X224788D01*
X223519D01*
Y869949D01*
X222249Y868679D01*
X171450Y858519D02*
X170181Y859789D01*
X167642D01*
X166372Y858519D01*
Y853441D01*
X167642Y852171D01*
X170181D01*
X171450Y853441D01*
X179068Y852171D02*
X173990D01*
X179068Y857250D01*
Y858519D01*
X177798Y859789D01*
X175259D01*
X173990Y858519D01*
X119384Y797559D02*
X124462D01*
X121923D01*
Y789941D01*
X127002D02*
Y797559D01*
X130810D01*
X132080Y796289D01*
Y793750D01*
X130810Y792480D01*
X127002D01*
X139698Y796289D02*
X138428Y797559D01*
X135889D01*
X134619Y796289D01*
Y795020D01*
X135889Y793750D01*
X138428D01*
X139698Y792480D01*
Y791211D01*
X138428Y789941D01*
X135889D01*
X134619Y791211D01*
X142237Y789941D02*
X144776D01*
X143506D01*
Y797559D01*
X142237Y796289D01*
M02*
