G04*
G04 #@! TF.GenerationSoftware,Altium Limited,Altium Designer,24.4.1 (13)*
G04*
G04 Layer_Physical_Order=1*
G04 Layer_Color=255*
%FSLAX44Y44*%
%MOMM*%
G71*
G04*
G04 #@! TF.SameCoordinates,A297E379-7285-4428-8928-0B9039EEF6AF*
G04*
G04*
G04 #@! TF.FilePolarity,Positive*
G04*
G01*
G75*
%ADD11C,0.2540*%
%ADD12R,0.8000X0.6000*%
%ADD13R,0.6000X1.4000*%
%ADD14R,1.6000X1.0000*%
%ADD15R,1.5000X2.7000*%
%ADD16R,0.5000X0.5000*%
%ADD17O,1.1000X0.6000*%
%ADD18R,1.1000X0.6000*%
%ADD29R,1.5000X1.5000*%
%ADD30C,1.5000*%
%ADD31C,1.2700*%
D11*
X87630Y833500D02*
Y855980D01*
Y833500D02*
X88900Y832230D01*
X49150Y816230D02*
X88900D01*
X171185Y830925D02*
X171450Y830660D01*
Y840660D02*
X200740D01*
X192020Y813580D02*
X195150Y810450D01*
Y806450D02*
Y810450D01*
X121550Y831190D02*
X147140Y856780D01*
X326270Y817760D02*
Y840928D01*
X310418Y856780D02*
X326270Y840928D01*
X314960Y806450D02*
X326270Y817760D01*
X126128Y824380D02*
X142408Y840660D01*
X147140Y856780D02*
X310418D01*
X266190Y831850D02*
X314960D01*
X266190Y806450D02*
X314960D01*
X142408Y840660D02*
X171450D01*
X146315Y830925D02*
X171185D01*
X154290Y806450D02*
X173150D01*
X195150D02*
X206910D01*
X233930Y833470D01*
X201850Y839390D02*
X201930Y839470D01*
X200740Y840660D02*
X201930Y839470D01*
X44450Y836930D02*
X47822D01*
X44450Y811530D02*
X49150Y816230D01*
X88900Y832230D02*
X89420Y831710D01*
X88900Y816230D02*
X89900D01*
X93940Y812190D01*
X89420Y831710D02*
X118530D01*
X93940Y812190D02*
X119050D01*
X133919D02*
X143419Y821690D01*
X119050Y831190D02*
X121550D01*
X118530Y831710D02*
X119050Y831190D01*
Y821690D02*
X122486D01*
X125176Y824380D01*
X126128D01*
X143419Y821690D02*
X146050D01*
X119050Y812190D02*
X133919D01*
X146050Y831190D02*
X146315Y830925D01*
X146050Y812190D02*
X148550D01*
X154290Y806450D01*
X262890Y835150D02*
X266190Y831850D01*
X262890Y803150D02*
X266190Y806450D01*
X238250Y835150D02*
X262890D01*
X233930Y839470D02*
X238250Y835150D01*
X233930Y833470D02*
Y839470D01*
D12*
X88900Y816230D02*
D03*
Y832230D02*
D03*
D13*
X195150Y806450D02*
D03*
X173150D02*
D03*
D14*
X262890Y835150D02*
D03*
Y803150D02*
D03*
D15*
X201930Y839470D02*
D03*
X233930D02*
D03*
D16*
X171450Y840660D02*
D03*
Y830660D02*
D03*
D17*
X146050Y812190D02*
D03*
Y821690D02*
D03*
Y831190D02*
D03*
X119050Y812190D02*
D03*
Y821690D02*
D03*
D18*
Y831190D02*
D03*
D29*
X314960Y831850D02*
D03*
X44450Y811530D02*
D03*
D30*
X314960Y806450D02*
D03*
X44450Y836930D02*
D03*
D31*
X87630Y855980D02*
D03*
M02*
